# xmcd
#
# Track frame offsets: 
#        183
#        19833
#        39783
#        58003
#        85228
#        106300
#        124595
#        141170
#        163223
#        176118
#        193735
#        216835
#        235433
#        256055
#        277880
#        304430
#
# Disc length: 4307 seconds
#
# Revision: 21
# Processed by: cddbd v1.5.2PL0 Copyright (c) Steve Scherf et al.
# Submitted via: ExactAudioCopy v0.99pb5
#
DISCID=e410d110
DTITLE=Various Artist - Heart Rock - Rock für's Herz - Vol. 2 - CD 2
DYEAR=1990
DGENRE=Pop
TTITLE0=Rod Stewart - Sailing
TTITLE1=Richard Marx - Right here waiting
TTITLE2=John Waite - Missing you
TTITLE3=10cc - I'm not in love
TTITLE4=Kinks - Don't forget to dance
TTITLE5=Beautiful South - Song for whoever
TTITLE6=Adrian Gurvitz - Classic
TTITLE7=Roxette - Listen to your heart
TTITLE8=Percy Sledge - When a man loves a woman
TTITLE9=Vaya Con Dios - What's a woman?
TTITLE10=Barclay James Harvest - Hymn
TTITLE11=Korgis - Everybody's got to learn sometime
TTITLE12=Living In A Box - Room in your heart
TTITLE13=Wishful Thinking - Hiroshima
TTITLE14=John Miles - Music
TTITLE15=Gary Moore - Still got the blues (for you)
EXTD=
EXTT0=
EXTT1=
EXTT2=
EXTT3=
EXTT4=
EXTT5=
EXTT6=
EXTT7=
EXTT8=
EXTT9=
EXTT10=
EXTT11=
EXTT12=
EXTT13=
EXTT14=
EXTT15=
PLAYORDER=
